<mxfile host="app.diagrams.net" agent="Mozilla/5.0 (Windows NT 10.0; Win64; x64) AppleWebKit/537.36 (KHTML, like Gecko) Chrome/131.0.0.0 Safari/537.36" version="24.8.6">
  <diagram name="Page-1" id="uIFWPxQe17nbiQqQhEPZ">
    <mxGraphModel dx="1338" dy="877" grid="1" gridSize="10" guides="1" tooltips="1" connect="1" arrows="1" fold="1" page="1" pageScale="1" pageWidth="850" pageHeight="1100" math="0" shadow="0">
      <root>
        <mxCell id="0" />
        <mxCell id="1" parent="0" />
        <mxCell id="m7v5mhuUGvf5ou_YdBxC-1" value="&lt;font style=&quot;font-size: 17px;&quot;&gt;Hành trình đi đến độc lập dân tộc ở Đông Nam Á&lt;/font&gt;" style="rounded=0;whiteSpace=wrap;html=1;fontStyle=1" vertex="1" parent="1">
          <mxGeometry x="330" y="390" width="190" height="80" as="geometry" />
        </mxCell>
        <mxCell id="m7v5mhuUGvf5ou_YdBxC-7" value="" style="endArrow=none;html=1;rounded=0;entryX=0;entryY=0.5;entryDx=0;entryDy=0;" edge="1" parent="1" target="m7v5mhuUGvf5ou_YdBxC-1">
          <mxGeometry width="50" height="50" relative="1" as="geometry">
            <mxPoint x="70" y="430" as="sourcePoint" />
            <mxPoint x="290" y="460" as="targetPoint" />
          </mxGeometry>
        </mxCell>
        <mxCell id="m7v5mhuUGvf5ou_YdBxC-8" value="Phong trào đấu tranh chống&lt;div&gt;thực dân xâm lược ở Đông Nam Á&lt;/div&gt;" style="edgeLabel;html=1;align=center;verticalAlign=middle;resizable=0;points=[];fontStyle=1" vertex="1" connectable="0" parent="m7v5mhuUGvf5ou_YdBxC-7">
          <mxGeometry x="-0.0153" relative="1" as="geometry">
            <mxPoint x="5" as="offset" />
          </mxGeometry>
        </mxCell>
        <mxCell id="m7v5mhuUGvf5ou_YdBxC-11" value="Từ XVII đến XIX, dưới sự lãnh đạo của vương triều Hồi giáo, cuộc đấu tranh chống thực dân Hà Lan nổ ra nhưng lại thất bại." style="rounded=0;whiteSpace=wrap;html=1;" vertex="1" parent="1">
          <mxGeometry x="-115" y="110" width="170" height="90" as="geometry" />
        </mxCell>
        <mxCell id="m7v5mhuUGvf5ou_YdBxC-27" value="" style="edgeStyle=orthogonalEdgeStyle;rounded=0;orthogonalLoop=1;jettySize=auto;html=1;" edge="1" parent="1" source="m7v5mhuUGvf5ou_YdBxC-12" target="m7v5mhuUGvf5ou_YdBxC-26">
          <mxGeometry relative="1" as="geometry" />
        </mxCell>
        <mxCell id="m7v5mhuUGvf5ou_YdBxC-12" value="1824-1826, 1852 và 1885, kháng chiến chống thực dân Anh diễn ra mạnh mẽ." style="rounded=0;whiteSpace=wrap;html=1;" vertex="1" parent="1">
          <mxGeometry x="-240" y="630" width="120" height="60" as="geometry" />
        </mxCell>
        <mxCell id="m7v5mhuUGvf5ou_YdBxC-15" value="Từ XVI đến XVIII, phong trào đấu tranh chống thực dân Tây Ban Nha nổ ra và gây nhiều thiệt hại cho kẻ thù." style="rounded=0;whiteSpace=wrap;html=1;" vertex="1" parent="1">
          <mxGeometry x="100" y="115" width="150" height="85" as="geometry" />
        </mxCell>
        <mxCell id="m7v5mhuUGvf5ou_YdBxC-16" value="" style="endArrow=none;html=1;rounded=0;" edge="1" parent="1">
          <mxGeometry width="50" height="50" relative="1" as="geometry">
            <mxPoint x="70" y="430" as="sourcePoint" />
            <mxPoint x="70" y="280" as="targetPoint" />
          </mxGeometry>
        </mxCell>
        <mxCell id="m7v5mhuUGvf5ou_YdBxC-24" value="Đông Nam Á hải đảo" style="edgeLabel;html=1;align=center;verticalAlign=middle;resizable=0;points=[];fontStyle=1" vertex="1" connectable="0" parent="m7v5mhuUGvf5ou_YdBxC-16">
          <mxGeometry x="-0.1035" y="1" relative="1" as="geometry">
            <mxPoint x="1" y="-13" as="offset" />
          </mxGeometry>
        </mxCell>
        <mxCell id="m7v5mhuUGvf5ou_YdBxC-18" value="" style="endArrow=none;html=1;rounded=0;" edge="1" parent="1">
          <mxGeometry width="50" height="50" relative="1" as="geometry">
            <mxPoint x="70" y="280" as="sourcePoint" />
            <mxPoint x="180" y="280" as="targetPoint" />
          </mxGeometry>
        </mxCell>
        <mxCell id="m7v5mhuUGvf5ou_YdBxC-22" value="In-đô-nê-xi-a" style="edgeLabel;html=1;align=center;verticalAlign=middle;resizable=0;points=[];fontStyle=1" vertex="1" connectable="0" parent="m7v5mhuUGvf5ou_YdBxC-18">
          <mxGeometry x="-0.1337" y="1" relative="1" as="geometry">
            <mxPoint x="12" as="offset" />
          </mxGeometry>
        </mxCell>
        <mxCell id="m7v5mhuUGvf5ou_YdBxC-19" value="" style="endArrow=none;html=1;rounded=0;" edge="1" parent="1">
          <mxGeometry width="50" height="50" relative="1" as="geometry">
            <mxPoint x="-30" y="280" as="sourcePoint" />
            <mxPoint x="80" y="280" as="targetPoint" />
          </mxGeometry>
        </mxCell>
        <mxCell id="m7v5mhuUGvf5ou_YdBxC-23" value="Phi-líp-pin" style="edgeLabel;html=1;align=center;verticalAlign=middle;resizable=0;points=[];fontStyle=1" vertex="1" connectable="0" parent="m7v5mhuUGvf5ou_YdBxC-19">
          <mxGeometry x="-0.7433" y="1" relative="1" as="geometry">
            <mxPoint x="36" as="offset" />
          </mxGeometry>
        </mxCell>
        <mxCell id="m7v5mhuUGvf5ou_YdBxC-20" value="" style="endArrow=classic;html=1;rounded=0;entryX=0.5;entryY=1;entryDx=0;entryDy=0;" edge="1" parent="1">
          <mxGeometry width="50" height="50" relative="1" as="geometry">
            <mxPoint x="-29.999999999999986" y="280" as="sourcePoint" />
            <mxPoint x="-29.999999999999872" y="199.99999999999994" as="targetPoint" />
          </mxGeometry>
        </mxCell>
        <mxCell id="m7v5mhuUGvf5ou_YdBxC-21" value="" style="endArrow=classic;html=1;rounded=0;" edge="1" parent="1">
          <mxGeometry width="50" height="50" relative="1" as="geometry">
            <mxPoint x="180" y="280" as="sourcePoint" />
            <mxPoint x="180" y="200" as="targetPoint" />
          </mxGeometry>
        </mxCell>
        <mxCell id="m7v5mhuUGvf5ou_YdBxC-26" value="Sau 6 thập kỉ, Anh đã chiếm được toàn bộ Mi-an-ma" style="whiteSpace=wrap;html=1;rounded=0;" vertex="1" parent="1">
          <mxGeometry x="-240" y="760" width="120" height="60" as="geometry" />
        </mxCell>
        <mxCell id="m7v5mhuUGvf5ou_YdBxC-30" value="" style="edgeStyle=orthogonalEdgeStyle;rounded=0;orthogonalLoop=1;jettySize=auto;html=1;" edge="1" parent="1" source="m7v5mhuUGvf5ou_YdBxC-28" target="m7v5mhuUGvf5ou_YdBxC-29">
          <mxGeometry relative="1" as="geometry" />
        </mxCell>
        <mxCell id="m7v5mhuUGvf5ou_YdBxC-28" value="Chống thực dân Pháp diễn ra quyết liệt gần 3 thập kỉ (1854-1885)" style="rounded=0;whiteSpace=wrap;html=1;" vertex="1" parent="1">
          <mxGeometry x="-70" y="630" width="120" height="60" as="geometry" />
        </mxCell>
        <mxCell id="m7v5mhuUGvf5ou_YdBxC-29" value="Gây cho Pháp nhiều tổn thất nặng" style="whiteSpace=wrap;html=1;rounded=0;" vertex="1" parent="1">
          <mxGeometry x="-70" y="760" width="120" height="60" as="geometry" />
        </mxCell>
        <mxCell id="m7v5mhuUGvf5ou_YdBxC-31" value="sau khi Nô-rô-đôm kí hiệp ước với Pháp (1863), nhiều cuộc khởi nghĩa nổ ra." style="rounded=0;whiteSpace=wrap;html=1;" vertex="1" parent="1">
          <mxGeometry x="100" y="630" width="120" height="60" as="geometry" />
        </mxCell>
        <mxCell id="m7v5mhuUGvf5ou_YdBxC-32" value="Phong trào chống Pháp diễn ra mạnh mẽ sau khi kí hiệp ước với Pháp (1893)" style="rounded=0;whiteSpace=wrap;html=1;" vertex="1" parent="1">
          <mxGeometry x="270" y="630" width="120" height="60" as="geometry" />
        </mxCell>
        <mxCell id="m7v5mhuUGvf5ou_YdBxC-33" value="" style="endArrow=none;html=1;rounded=0;" edge="1" parent="1">
          <mxGeometry width="50" height="50" relative="1" as="geometry">
            <mxPoint x="70" y="550" as="sourcePoint" />
            <mxPoint x="70" y="430" as="targetPoint" />
          </mxGeometry>
        </mxCell>
        <mxCell id="m7v5mhuUGvf5ou_YdBxC-34" value="Đông Nam Á lục địa" style="edgeLabel;html=1;align=center;verticalAlign=middle;resizable=0;points=[];fontStyle=1" vertex="1" connectable="0" parent="m7v5mhuUGvf5ou_YdBxC-33">
          <mxGeometry x="-0.1035" y="1" relative="1" as="geometry">
            <mxPoint x="1" y="-13" as="offset" />
          </mxGeometry>
        </mxCell>
        <mxCell id="m7v5mhuUGvf5ou_YdBxC-35" value="" style="endArrow=none;html=1;rounded=0;" edge="1" parent="1">
          <mxGeometry width="50" height="50" relative="1" as="geometry">
            <mxPoint x="-180" y="550" as="sourcePoint" />
            <mxPoint x="330" y="550" as="targetPoint" />
          </mxGeometry>
        </mxCell>
        <mxCell id="m7v5mhuUGvf5ou_YdBxC-37" value="" style="endArrow=classic;html=1;rounded=0;entryX=0.5;entryY=0;entryDx=0;entryDy=0;" edge="1" parent="1" target="m7v5mhuUGvf5ou_YdBxC-31">
          <mxGeometry width="50" height="50" relative="1" as="geometry">
            <mxPoint x="160" y="550" as="sourcePoint" />
            <mxPoint x="130" y="670" as="targetPoint" />
          </mxGeometry>
        </mxCell>
        <mxCell id="m7v5mhuUGvf5ou_YdBxC-43" value="Cam-pu-chia" style="edgeLabel;html=1;align=center;verticalAlign=middle;resizable=0;points=[];fontStyle=1" vertex="1" connectable="0" parent="m7v5mhuUGvf5ou_YdBxC-37">
          <mxGeometry x="0.023" y="1" relative="1" as="geometry">
            <mxPoint as="offset" />
          </mxGeometry>
        </mxCell>
        <mxCell id="m7v5mhuUGvf5ou_YdBxC-38" value="" style="endArrow=classic;html=1;rounded=0;entryX=0.5;entryY=0;entryDx=0;entryDy=0;" edge="1" parent="1" target="m7v5mhuUGvf5ou_YdBxC-32">
          <mxGeometry width="50" height="50" relative="1" as="geometry">
            <mxPoint x="330" y="550" as="sourcePoint" />
            <mxPoint x="460" y="560" as="targetPoint" />
          </mxGeometry>
        </mxCell>
        <mxCell id="m7v5mhuUGvf5ou_YdBxC-44" value="Lào" style="edgeLabel;html=1;align=center;verticalAlign=middle;resizable=0;points=[];fontStyle=1" vertex="1" connectable="0" parent="m7v5mhuUGvf5ou_YdBxC-38">
          <mxGeometry x="0.023" y="-1" relative="1" as="geometry">
            <mxPoint as="offset" />
          </mxGeometry>
        </mxCell>
        <mxCell id="m7v5mhuUGvf5ou_YdBxC-39" value="" style="endArrow=classic;html=1;rounded=0;entryX=0.5;entryY=0;entryDx=0;entryDy=0;" edge="1" parent="1" target="m7v5mhuUGvf5ou_YdBxC-28">
          <mxGeometry width="50" height="50" relative="1" as="geometry">
            <mxPoint x="-10" y="550" as="sourcePoint" />
            <mxPoint x="-10" y="580" as="targetPoint" />
          </mxGeometry>
        </mxCell>
        <mxCell id="m7v5mhuUGvf5ou_YdBxC-42" value="Việt Nam" style="edgeLabel;html=1;align=center;verticalAlign=middle;resizable=0;points=[];fontStyle=1" vertex="1" connectable="0" parent="m7v5mhuUGvf5ou_YdBxC-39">
          <mxGeometry x="-0.077" y="1" relative="1" as="geometry">
            <mxPoint y="3" as="offset" />
          </mxGeometry>
        </mxCell>
        <mxCell id="m7v5mhuUGvf5ou_YdBxC-40" value="" style="endArrow=classic;html=1;rounded=0;entryX=0.5;entryY=0;entryDx=0;entryDy=0;" edge="1" parent="1" target="m7v5mhuUGvf5ou_YdBxC-12">
          <mxGeometry width="50" height="50" relative="1" as="geometry">
            <mxPoint x="-180" y="550" as="sourcePoint" />
            <mxPoint x="-110" y="560" as="targetPoint" />
          </mxGeometry>
        </mxCell>
        <mxCell id="m7v5mhuUGvf5ou_YdBxC-41" value="Mi-an-ma" style="edgeLabel;html=1;align=center;verticalAlign=middle;resizable=0;points=[];fontStyle=1" vertex="1" connectable="0" parent="m7v5mhuUGvf5ou_YdBxC-40">
          <mxGeometry x="-0.017" y="1" relative="1" as="geometry">
            <mxPoint as="offset" />
          </mxGeometry>
        </mxCell>
        <mxCell id="m7v5mhuUGvf5ou_YdBxC-48" value="" style="endArrow=none;html=1;rounded=0;exitX=1;exitY=0.5;exitDx=0;exitDy=0;" edge="1" parent="1" source="m7v5mhuUGvf5ou_YdBxC-1">
          <mxGeometry width="50" height="50" relative="1" as="geometry">
            <mxPoint x="750" y="400" as="sourcePoint" />
            <mxPoint x="560" y="430" as="targetPoint" />
          </mxGeometry>
        </mxCell>
        <mxCell id="m7v5mhuUGvf5ou_YdBxC-50" value="" style="endArrow=none;html=1;rounded=0;" edge="1" parent="1">
          <mxGeometry width="50" height="50" relative="1" as="geometry">
            <mxPoint x="560" y="500" as="sourcePoint" />
            <mxPoint x="560" y="430" as="targetPoint" />
          </mxGeometry>
        </mxCell>
        <mxCell id="m7v5mhuUGvf5ou_YdBxC-51" value="" style="endArrow=none;html=1;rounded=0;" edge="1" parent="1">
          <mxGeometry width="50" height="50" relative="1" as="geometry">
            <mxPoint x="560" y="500" as="sourcePoint" />
            <mxPoint x="720" y="500" as="targetPoint" />
          </mxGeometry>
        </mxCell>
        <mxCell id="m7v5mhuUGvf5ou_YdBxC-70" value="Thời kì tái thiết và phát triển&amp;nbsp;&lt;div&gt;sau khi giành được độc lập&lt;/div&gt;" style="edgeLabel;html=1;align=center;verticalAlign=middle;resizable=0;points=[];fontStyle=1" vertex="1" connectable="0" parent="m7v5mhuUGvf5ou_YdBxC-51">
          <mxGeometry x="-0.3962" y="-3" relative="1" as="geometry">
            <mxPoint x="32" as="offset" />
          </mxGeometry>
        </mxCell>
        <mxCell id="m7v5mhuUGvf5ou_YdBxC-62" style="edgeStyle=orthogonalEdgeStyle;rounded=0;orthogonalLoop=1;jettySize=auto;html=1;entryX=0;entryY=0.5;entryDx=0;entryDy=0;" edge="1" parent="1" source="m7v5mhuUGvf5ou_YdBxC-55" target="m7v5mhuUGvf5ou_YdBxC-56">
          <mxGeometry relative="1" as="geometry" />
        </mxCell>
        <mxCell id="m7v5mhuUGvf5ou_YdBxC-63" value="1945" style="edgeLabel;html=1;align=center;verticalAlign=middle;resizable=0;points=[];fontStyle=1" vertex="1" connectable="0" parent="m7v5mhuUGvf5ou_YdBxC-62">
          <mxGeometry x="-0.0656" y="1" relative="1" as="geometry">
            <mxPoint as="offset" />
          </mxGeometry>
        </mxCell>
        <mxCell id="m7v5mhuUGvf5ou_YdBxC-55" value="Phong trào chống thực dân mang tính chất phong kiến và diễn ra sớm" style="rounded=0;whiteSpace=wrap;html=1;" vertex="1" parent="1">
          <mxGeometry x="500" y="140" width="120" height="60" as="geometry" />
        </mxCell>
        <mxCell id="m7v5mhuUGvf5ou_YdBxC-65" value="" style="edgeStyle=orthogonalEdgeStyle;rounded=0;orthogonalLoop=1;jettySize=auto;html=1;" edge="1" parent="1" source="m7v5mhuUGvf5ou_YdBxC-56" target="m7v5mhuUGvf5ou_YdBxC-64">
          <mxGeometry relative="1" as="geometry" />
        </mxCell>
        <mxCell id="m7v5mhuUGvf5ou_YdBxC-67" value="" style="edgeStyle=orthogonalEdgeStyle;rounded=0;orthogonalLoop=1;jettySize=auto;html=1;" edge="1" parent="1" source="m7v5mhuUGvf5ou_YdBxC-56" target="m7v5mhuUGvf5ou_YdBxC-66">
          <mxGeometry relative="1" as="geometry" />
        </mxCell>
        <mxCell id="m7v5mhuUGvf5ou_YdBxC-68" style="edgeStyle=orthogonalEdgeStyle;rounded=0;orthogonalLoop=1;jettySize=auto;html=1;entryX=0;entryY=0.5;entryDx=0;entryDy=0;" edge="1" parent="1" source="m7v5mhuUGvf5ou_YdBxC-56" target="m7v5mhuUGvf5ou_YdBxC-57">
          <mxGeometry relative="1" as="geometry" />
        </mxCell>
        <mxCell id="m7v5mhuUGvf5ou_YdBxC-69" value="1975" style="edgeLabel;html=1;align=center;verticalAlign=middle;resizable=0;points=[];fontStyle=1" vertex="1" connectable="0" parent="m7v5mhuUGvf5ou_YdBxC-68">
          <mxGeometry x="-0.2094" y="-1" relative="1" as="geometry">
            <mxPoint y="-1" as="offset" />
          </mxGeometry>
        </mxCell>
        <mxCell id="m7v5mhuUGvf5ou_YdBxC-56" value="Phong trào đấu tranh dân tộc phát triển theo 2 hướng" style="rounded=0;whiteSpace=wrap;html=1;" vertex="1" parent="1">
          <mxGeometry x="670" y="140" width="120" height="60" as="geometry" />
        </mxCell>
        <mxCell id="m7v5mhuUGvf5ou_YdBxC-57" value="Các nước bị xâm chiếm yêu cầu thực dân Phương Tây trả độc lập" style="rounded=0;whiteSpace=wrap;html=1;" vertex="1" parent="1">
          <mxGeometry x="840" y="140" width="120" height="60" as="geometry" />
        </mxCell>
        <mxCell id="m7v5mhuUGvf5ou_YdBxC-58" value="" style="endArrow=classic;html=1;rounded=0;" edge="1" parent="1">
          <mxGeometry relative="1" as="geometry">
            <mxPoint x="560" y="430" as="sourcePoint" />
            <mxPoint x="560" y="200" as="targetPoint" />
          </mxGeometry>
        </mxCell>
        <mxCell id="m7v5mhuUGvf5ou_YdBxC-59" value="Các giai đoạn phát triển của cuộc đấu tranh&lt;div&gt;giành độc lập dân tộc ở Đông Nam Á&lt;/div&gt;" style="edgeLabel;resizable=0;html=1;;align=center;verticalAlign=middle;fontStyle=1" connectable="0" vertex="1" parent="m7v5mhuUGvf5ou_YdBxC-58">
          <mxGeometry relative="1" as="geometry" />
        </mxCell>
        <mxCell id="m7v5mhuUGvf5ou_YdBxC-61" value="1920" style="edgeLabel;resizable=0;html=1;;align=right;verticalAlign=bottom;fontStyle=1" connectable="0" vertex="1" parent="m7v5mhuUGvf5ou_YdBxC-58">
          <mxGeometry x="1" relative="1" as="geometry">
            <mxPoint x="10" y="30" as="offset" />
          </mxGeometry>
        </mxCell>
        <mxCell id="m7v5mhuUGvf5ou_YdBxC-64" value="Tư sản (giai cấp tư sản lãnh đạo)" style="whiteSpace=wrap;html=1;rounded=0;" vertex="1" parent="1">
          <mxGeometry x="700" y="10" width="120" height="60" as="geometry" />
        </mxCell>
        <mxCell id="m7v5mhuUGvf5ou_YdBxC-66" value="Vô sản (giai cấp vô sản lãnh đạo)" style="whiteSpace=wrap;html=1;rounded=0;" vertex="1" parent="1">
          <mxGeometry x="700" y="270" width="120" height="60" as="geometry" />
        </mxCell>
        <mxCell id="m7v5mhuUGvf5ou_YdBxC-75" value="" style="endArrow=none;html=1;rounded=0;movable=1;resizable=1;rotatable=1;deletable=1;editable=1;locked=0;connectable=1;flowAnimation=0;shadow=0;strokeColor=default;anchorPointDirection=1;snapToPoint=0;bendable=1;" edge="1" parent="1">
          <mxGeometry width="50" height="50" relative="1" as="geometry">
            <mxPoint x="1040" y="640" as="sourcePoint" />
            <mxPoint x="1040" y="360" as="targetPoint" />
          </mxGeometry>
        </mxCell>
        <mxCell id="m7v5mhuUGvf5ou_YdBxC-76" value="chính sách &quot;chia để trị&quot; đã tạo ra sự phân biệt sắc tộc, tôn giáo,... giữa các quốc gia trên thế giối" style="rounded=0;whiteSpace=wrap;html=1;" vertex="1" parent="1">
          <mxGeometry x="1200" y="325" width="160" height="70" as="geometry" />
        </mxCell>
        <mxCell id="m7v5mhuUGvf5ou_YdBxC-77" value="" style="endArrow=classic;html=1;rounded=0;" edge="1" parent="1">
          <mxGeometry width="50" height="50" relative="1" as="geometry">
            <mxPoint x="720" y="500" as="sourcePoint" />
            <mxPoint x="890" y="500" as="targetPoint" />
          </mxGeometry>
        </mxCell>
        <mxCell id="m7v5mhuUGvf5ou_YdBxC-78" value="a. Những ảnh hưởng của&lt;div&gt;chế độ thực dân&lt;/div&gt;" style="edgeLabel;html=1;align=center;verticalAlign=middle;resizable=0;points=[];fontStyle=1" vertex="1" connectable="0" parent="m7v5mhuUGvf5ou_YdBxC-77">
          <mxGeometry x="0.5128" y="3" relative="1" as="geometry">
            <mxPoint x="-31" y="-17" as="offset" />
          </mxGeometry>
        </mxCell>
        <mxCell id="m7v5mhuUGvf5ou_YdBxC-79" value="Hơn 4 thế kỉ thống trị, thực dân phương Tây đã lại những hậu quả nặng nề cho ĐNÁ" style="rounded=0;whiteSpace=wrap;html=1;" vertex="1" parent="1">
          <mxGeometry x="890" y="470" width="120" height="60" as="geometry" />
        </mxCell>
        <mxCell id="m7v5mhuUGvf5ou_YdBxC-82" value="" style="endArrow=classic;html=1;rounded=0;exitX=1;exitY=0.5;exitDx=0;exitDy=0;" edge="1" parent="1" source="m7v5mhuUGvf5ou_YdBxC-79">
          <mxGeometry width="50" height="50" relative="1" as="geometry">
            <mxPoint x="1060" y="520" as="sourcePoint" />
            <mxPoint x="1040" y="500" as="targetPoint" />
          </mxGeometry>
        </mxCell>
        <mxCell id="m7v5mhuUGvf5ou_YdBxC-83" value="chế độ thực dân đã để lại nhiều công trình vô bổ, đa số biến thành nơi cung cấp nguyên liệu và thị trường tiêu thụ" style="rounded=0;whiteSpace=wrap;html=1;" vertex="1" parent="1">
          <mxGeometry x="1200" y="420" width="160" height="70" as="geometry" />
        </mxCell>
        <mxCell id="m7v5mhuUGvf5ou_YdBxC-84" value="tạo văn hoá nô dịch, thi hành chinh sách ngu dân và hạn chế hoạt động giáo dục" style="rounded=0;whiteSpace=wrap;html=1;" vertex="1" parent="1">
          <mxGeometry x="1200" y="520" width="160" height="60" as="geometry" />
        </mxCell>
        <mxCell id="m7v5mhuUGvf5ou_YdBxC-85" value="80 năm cai trị của chủ nghĩa thực dân để lại cho Việt Nam nhiều hậu quả nặng nề" style="rounded=0;whiteSpace=wrap;html=1;" vertex="1" parent="1">
          <mxGeometry x="1200" y="610" width="160" height="60" as="geometry" />
        </mxCell>
        <mxCell id="m7v5mhuUGvf5ou_YdBxC-86" value="" style="endArrow=classic;html=1;rounded=0;entryX=0;entryY=0.5;entryDx=0;entryDy=0;" edge="1" parent="1" target="m7v5mhuUGvf5ou_YdBxC-85">
          <mxGeometry width="50" height="50" relative="1" as="geometry">
            <mxPoint x="1040" y="640" as="sourcePoint" />
            <mxPoint x="1090" y="540" as="targetPoint" />
          </mxGeometry>
        </mxCell>
        <mxCell id="m7v5mhuUGvf5ou_YdBxC-97" value="Việt Nam" style="edgeLabel;html=1;align=center;verticalAlign=middle;resizable=0;points=[];fontStyle=1" vertex="1" connectable="0" parent="m7v5mhuUGvf5ou_YdBxC-86">
          <mxGeometry x="-0.4271" y="1" relative="1" as="geometry">
            <mxPoint x="34" y="1" as="offset" />
          </mxGeometry>
        </mxCell>
        <mxCell id="m7v5mhuUGvf5ou_YdBxC-87" value="" style="endArrow=classic;html=1;rounded=0;entryX=0;entryY=0.5;entryDx=0;entryDy=0;" edge="1" parent="1" target="m7v5mhuUGvf5ou_YdBxC-84">
          <mxGeometry width="50" height="50" relative="1" as="geometry">
            <mxPoint x="1040" y="550" as="sourcePoint" />
            <mxPoint x="1120" y="510" as="targetPoint" />
          </mxGeometry>
        </mxCell>
        <mxCell id="m7v5mhuUGvf5ou_YdBxC-96" value="Văn hoá" style="edgeLabel;html=1;align=center;verticalAlign=middle;resizable=0;points=[];fontStyle=1" vertex="1" connectable="0" parent="m7v5mhuUGvf5ou_YdBxC-87">
          <mxGeometry x="-0.2396" y="1" relative="1" as="geometry">
            <mxPoint x="19" as="offset" />
          </mxGeometry>
        </mxCell>
        <mxCell id="m7v5mhuUGvf5ou_YdBxC-88" value="" style="endArrow=classic;html=1;rounded=0;entryX=0;entryY=0.5;entryDx=0;entryDy=0;" edge="1" parent="1" target="m7v5mhuUGvf5ou_YdBxC-83">
          <mxGeometry width="50" height="50" relative="1" as="geometry">
            <mxPoint x="1040" y="455" as="sourcePoint" />
            <mxPoint x="1120" y="390" as="targetPoint" />
          </mxGeometry>
        </mxCell>
        <mxCell id="m7v5mhuUGvf5ou_YdBxC-95" value="Kinh tế" style="edgeLabel;html=1;align=center;verticalAlign=middle;resizable=0;points=[];fontStyle=1" vertex="1" connectable="0" parent="m7v5mhuUGvf5ou_YdBxC-88">
          <mxGeometry x="-0.3333" y="-1" relative="1" as="geometry">
            <mxPoint x="27" y="-1" as="offset" />
          </mxGeometry>
        </mxCell>
        <mxCell id="m7v5mhuUGvf5ou_YdBxC-89" value="" style="endArrow=classic;html=1;rounded=0;entryX=0;entryY=0.5;entryDx=0;entryDy=0;" edge="1" parent="1" target="m7v5mhuUGvf5ou_YdBxC-76">
          <mxGeometry width="50" height="50" relative="1" as="geometry">
            <mxPoint x="1040" y="360" as="sourcePoint" />
            <mxPoint x="1080" y="325" as="targetPoint" />
          </mxGeometry>
        </mxCell>
        <mxCell id="m7v5mhuUGvf5ou_YdBxC-94" value="Chính trị - xã hội" style="edgeLabel;html=1;align=center;verticalAlign=middle;resizable=0;points=[];fontStyle=1" vertex="1" connectable="0" parent="m7v5mhuUGvf5ou_YdBxC-89">
          <mxGeometry x="-0.2813" y="-1" relative="1" as="geometry">
            <mxPoint x="23" y="-1" as="offset" />
          </mxGeometry>
        </mxCell>
        <mxCell id="m7v5mhuUGvf5ou_YdBxC-100" value="" style="endArrow=classic;html=1;rounded=0;" edge="1" parent="1">
          <mxGeometry width="50" height="50" relative="1" as="geometry">
            <mxPoint x="640" y="520" as="sourcePoint" />
            <mxPoint x="640" y="600" as="targetPoint" />
          </mxGeometry>
        </mxCell>
        <mxCell id="m7v5mhuUGvf5ou_YdBxC-101" value="b. Quá trình tái thiết và phát triển" style="edgeLabel;html=1;align=center;verticalAlign=middle;resizable=0;points=[];fontStyle=1" vertex="1" connectable="0" parent="m7v5mhuUGvf5ou_YdBxC-100">
          <mxGeometry x="-0.0539" y="1" relative="1" as="geometry">
            <mxPoint as="offset" />
          </mxGeometry>
        </mxCell>
        <mxCell id="m7v5mhuUGvf5ou_YdBxC-104" value="" style="edgeStyle=orthogonalEdgeStyle;rounded=0;orthogonalLoop=1;jettySize=auto;html=1;" edge="1" parent="1" source="m7v5mhuUGvf5ou_YdBxC-102" target="m7v5mhuUGvf5ou_YdBxC-103">
          <mxGeometry relative="1" as="geometry" />
        </mxCell>
        <mxCell id="m7v5mhuUGvf5ou_YdBxC-102" value="Từ giữa TK XX, các nước thành lập ASEAN để phát triển" style="rounded=0;whiteSpace=wrap;html=1;" vertex="1" parent="1">
          <mxGeometry x="580" y="600" width="120" height="60" as="geometry" />
        </mxCell>
        <mxCell id="m7v5mhuUGvf5ou_YdBxC-103" value="Các nước Đông Nam Á từng nước giành độc lập" style="whiteSpace=wrap;html=1;rounded=0;" vertex="1" parent="1">
          <mxGeometry x="580" y="740" width="120" height="60" as="geometry" />
        </mxCell>
      </root>
    </mxGraphModel>
  </diagram>
</mxfile>
